<?xml version="1.0" encoding="UTF-8" standalone="no"?><!DOCTYPE svg PUBLIC "-//W3C//DTD SVG 1.1//EN" "http://www.w3.org/Graphics/SVG/1.1/DTD/svg11.dtd"><svg width="100%" height="100%" viewBox="0 0 103 59" version="1.1" xmlns="http://www.w3.org/2000/svg" xmlns:xlink="http://www.w3.org/1999/xlink" xml:space="preserve" xmlns:serif="http://www.serif.com/" style="fill-rule:evenodd;clip-rule:evenodd;stroke-linecap:round;stroke-linejoin:round;stroke-miterlimit:1.5;"><g><g><ellipse cx="49.265" cy="30.888" rx="48.224" ry="26.626" style="fill:#fefffe;stroke:#000;stroke-width:2.08px;"/><ellipse cx="49.265" cy="28.789" rx="48.224" ry="24.528" style="fill:#fefffe;stroke:#000;stroke-width:2.08px;"/></g><g><ellipse cx="54.997" cy="25.55" rx="46.045" ry="24.508" style="fill:#fefffe;stroke:#000;stroke-width:2.08px;"/><ellipse cx="54.997" cy="23.619" rx="46.045" ry="22.577" style="fill:#fefffe;stroke:#000;stroke-width:2.08px;"/></g><path d="M70.688,19.459c-0,-1.915 -1.555,-3.47 -3.471,-3.47l-11.307,-0c-1.915,-0 -3.47,1.555 -3.47,3.47l-0,6.942c-0,1.915 1.555,3.47 3.47,3.47l11.307,0c1.916,0 3.471,-1.555 3.471,-3.47l-0,-6.942Z" style="fill:#fefffe;stroke:#000;stroke-width:2.08px;"/><path d="M70.688,17.147c-0,-1.797 -1.459,-3.256 -3.257,-3.256l-11.735,-0c-1.797,-0 -3.256,1.459 -3.256,3.256l-0,6.513c-0,1.797 1.459,3.256 3.256,3.256l11.735,0c1.798,0 3.257,-1.459 3.257,-3.256l-0,-6.513Z" style="fill:#fefffe;stroke:#000;stroke-width:2.08px;"/></g></svg>